HIERARCHY
ROOT pelvis
{
  OFFSET 0 100 0
  CHANNELS 6 Xposition Yposition Zposition Zrotation Xrotation Yrotation
  JOINT pelvis_right_femur
  {
    OFFSET -10.78128 -3.44521 -0.5502486
    CHANNELS 3 Zrotation Xrotation Yrotation
    JOINT right_femur_tibia
    {
      OFFSET -0.8047443 -44.0398 -0.1307829
      CHANNELS 3 Zrotation Xrotation Yrotation
      JOINT right_tibia_foot
      {
        OFFSET 3.006224 -47.83518 -5
        CHANNELS 3 Zrotation Xrotation Yrotation
        End Site
        {
          OFFSET 0 -5 15
        }
      }
    }
  }
  JOINT pelvis_left_femur
  {
    OFFSET 10.78128 -3.44521 -0.5502486
    CHANNELS 3 Zrotation Xrotation Yrotation
    JOINT left_femur_tibia
    {
      OFFSET 0.8047443 -44.0398 -0.1307829
      CHANNELS 3 Zrotation Xrotation Yrotation
      JOINT left_tibia_foot
      {
        OFFSET -4.370144 -48.10324 -4.275266
        CHANNELS 3 Zrotation Xrotation Yrotation
        End Site
        {
          OFFSET 0 -5 15
        }
      }
    }
  }
  JOINT pelvis_spine1
  {
    OFFSET 0 6.468898 -3.129235
    CHANNELS 3 Zrotation Xrotation Yrotation
    JOINT spine1
    {
      OFFSET 0 23.15396 4.99043
      CHANNELS 3 Zrotation Xrotation Yrotation
      JOINT spine2
      {
        OFFSET 0 20.79997 -5.064912
        CHANNELS 3 Zrotation Xrotation Yrotation
        JOINT neck
        {
          OFFSET 0 14.38658 9.616178
          CHANNELS 3 Zrotation Xrotation Yrotation
          End Site
          {
            OFFSET 0 20 0
          }
        }
      }
      JOINT right_manubrium
      {
        OFFSET -5.722621 16.35077 3.967754
        CHANNELS 3 Zrotation Xrotation Yrotation
        JOINT right_clavicle
        {
          OFFSET -13.16364 1.694482 -4.693211
          CHANNELS 3 Zrotation Xrotation Yrotation
          JOINT right_humerus
          {
            OFFSET -28.5034 -0.3100689 -2.792744
            CHANNELS 3 Zrotation Xrotation Yrotation
            JOINT right_radius
            {
              OFFSET -25.15693 0.02248979 -1.271978
              CHANNELS 3 Zrotation Xrotation Yrotation
              End Site
              {
                OFFSET -15 0 0
              }
            }
          }
        }
      }
      JOINT left_manubrium
      {
        OFFSET 5.722621 16.35077 3.967754
        CHANNELS 3 Zrotation Xrotation Yrotation
        JOINT left_clavicle
        {
          OFFSET 13.16364 1.694482 -4.693211
          CHANNELS 3 Zrotation Xrotation Yrotation
          JOINT left_humerus
          {
            OFFSET 29.39168 -1.063119 -2.237045
            CHANNELS 3 Zrotation Xrotation Yrotation
            JOINT left_radius
            {
              OFFSET 24.59957 -0.9528479 0.9047498
              CHANNELS 3 Zrotation Xrotation Yrotation
              End Site
              {
                OFFSET 15 -0 -0
              }
            }
          }
        }
      }
    }
  }
}
MOTION
Frames: 17
Frame Time: 0.0416666666667
0 103.5113 0 1.676149 -2.971323 0.2124081 1.164702 -10.5292 7.629381 -0 41.40806 -0 -6.899432 -15.87074 -4.152598 -6.973806 12.19391 -24.97745 -0 5.760579 -0 0.4839882 -19.35561 24.11207 -2.326199 -3.42919 4.430361 -0.0293009 7.176612 -6.976043 1.148553 22.77154 9.226036 5.640652 -22.07314 9.692596 5.87183 -19.30036 9.847832 88.03542 35.84533 -23.64868 -0 0 17.79584 -7.03229 7.576637 2.110996 7.256638 -20.50132 -3.065244 -101.4504 43.69139 28.33717 0 0 -25.52616 -9.794209 16.81077 26.36395
0.1112648 103.5872 1.175428 1.416127 -2.329146 0.3342522 1.627938 -12.75902 8.41693 -0 42.22365 -0 -6.248264 -15.88045 -4.704942 -6.80306 12.6693 -25.42028 -0 6.262594 -0 -1.331129 -21.05408 23.6424 -2.049505 -3.303331 4.677214 -0.2690504 7.189245 -6.87146 1.205995 22.64451 9.250136 5.764786 -22.01406 9.672233 5.769603 -19.2622 9.728291 88.10668 36.33779 -23.53921 -0 0 17.725 -7.254928 7.837296 2.096157 7.527564 -20.81696 -2.793985 -101.1936 43.51851 28.20292 0 0 -26.05278 -9.08427 16.84783 26.0268
0.2246588 103.4195 2.633685 0.5650067 -2.107746 0.3866219 2.965945 -17.70543 7.38943 -0 39.53776 -0 -6.749028 -13.1651 -4.118343 -6.007736 12.7698 -24.25666 -0 6.530002 -0 -1.204007 -21.95097 22.68791 -1.942798 -2.446925 4.177927 0.4929849 7.080634 -7.095315 1.117657 22.71445 8.712227 5.254183 -22.6157 9.161442 5.67043 -18.58543 10.15559 87.80325 36.28736 -22.72708 -0 0 16.25549 -8.161363 8.268562 3.383004 6.554188 -20.31879 -2.88011 -99.29617 41.76107 26.72955 0 0 -24.78453 -8.577706 16.59115 25.4628
0.3314106 103.1229 4.308538 0.01962649 -1.33005 0.4339465 3.880906 -21.71557 6.992083 -0 36.86449 -0 -6.545193 -11.65122 -3.853283 -5.619039 12.8775 -23.40546 -0 6.663113 -0 -1.460083 -23.05498 21.84284 -1.861593 -2.004713 3.910282 0.8854339 7.053138 -7.232995 1.076691 22.71659 8.436401 4.995339 -22.89678 8.886624 5.623005 -18.2258 10.38138 87.7134 36.22872 -22.4011 -0 0 15.47948 -8.666669 8.540773 4.048879 6.071941 -20.10551 -2.939668 -98.2829 40.77467 25.92152 0 0 -24.19932 -8.326171 16.43096 25.1836
0.4514103 102.6752 6.333963 -0.4704747 -0.03600333 0.5016568 4.879087 -26.38294 6.604767 -0 32.55915 -0 -6.073418 -10.10719 -3.478529 -5.40319 13.05486 -22.19722 -0 6.56119 -0 -0.77739 -23.97153 21.09831 -1.721927 -1.592022 3.600727 1.261263 7.058345 -7.423476 1.059028 22.65643 8.176556 4.767458 -23.12282 8.627708 5.595293 -17.86041 10.59682 87.8295 36.06849 -22.38913 -0 0 14.73914 -9.044155 8.823042 4.580688 5.656232 -19.97985 -3.046949 -97.31426 39.853 25.09983 0 0 -23.82666 -8.253631 16.28745 25.11484
0.578973 102.0872 8.788703 -0.8461215 1.346688 0.6224103 5.654265 -30.45052 6.077357 -0 27.84985 -0 -5.699358 -8.471718 -3.065855 -5.298968 13.39053 -20.96354 -0 6.594393 -0 -0.3960385 -24.81907 20.15029 -1.599132 -1.258813 3.321793 1.581251 7.070356 -7.603881 1.04519 22.58999 7.963998 4.578374 -23.29897 8.413554 5.576011 -17.55203 10.77548 87.97997 35.89867 -22.46401 -0 0 14.12135 -9.340586 9.070142 5.001933 5.321447 -19.89214 -3.154911 -96.50944 39.07745 24.39812 0 0 -23.56358 -8.23959 16.16222 25.09589
0.7060775 101.3912 11.77973 -1.151541 2.759153 0.8275326 6.277877 -33.86798 5.418169 -0 22.94579 -0 -5.505986 -6.657095 -2.619755 -5.259907 13.97185 -19.69537 -0 7.005131 -0 -0.3380294 -25.41356 18.93692 -1.455983 -0.9496341 3.059839 1.866522 7.091959 -7.785751 1.0387 22.50344 7.769551 4.411188 -23.44356 8.214288 5.553398 -17.26076 10.93218 88.18413 35.74244 -22.61393 -0 0 13.54342 -9.616469 9.337147 5.367964 5.03949 -19.85227 -3.255775 -95.74819 38.33757 23.72585 0 0 -23.40446 -8.228273 16.04878 25.10509
0.8218027 100.6365 15.38509 -1.429283 3.923575 1.132047 6.738041 -36.12049 4.608932 -0 18.58813 -0 -5.628866 -4.70973 -2.166833 -5.195594 14.75062 -18.47025 -0 8.211602 -0 -0.9997582 -25.52962 17.32166 -1.30865 -0.660315 2.836754 2.113238 7.120756 -7.950208 1.033126 22.41315 7.59223 4.260135 -23.5626 8.026527 5.520842 -16.99398 11.06763 88.38375 35.63839 -22.74701 -0 0 13.00012 -9.928777 9.633691 5.719539 4.798608 -19.84445 -3.333609 -95.02286 37.60445 23.09263 0 0 -23.29696 -8.152568 15.93831 25.06884
0.9205377 99.91287 19.65014 -1.73715 4.652274 1.528074 7.157495 -36.91631 3.80745 -0 15.39952 -0 -6.073334 -2.846867 -1.760743 -5.028703 15.56666 -17.31482 -0 10.73082 -0 -2.389242 -24.80826 15.3344 -1.151523 -0.3826387 2.675287 2.307983 7.163595 -8.083825 1.029128 22.3218 7.430511 4.126234 -23.64987 7.846759 5.471557 -16.75563 11.17973 88.56092 35.62622 -22.82047 -0 0 12.48471 -10.32924 9.987988 6.078904 4.601179 -19.87825 -3.373627 -94.31898 36.84654 22.49996 0 0 -23.23483 -7.954227 15.82866 24.94541
1.008191 99.34686 24.55889 -2.109906 4.785898 1.963718 7.649661 -36.07681 3.184688 -0 13.82284 -0 -6.776047 -1.404098 -1.458977 -4.703947 16.07953 -16.21748 -0 15.09449 -0 -4.288862 -22.93347 13.15572 -0.9915363 -0.1239957 2.606711 2.429247 7.227781 -8.165587 1.026937 22.23846 7.291007 4.015608 -23.69318 7.680653 5.403177 -16.56383 11.26338 88.68134 35.74129 -22.78047 -0 0 12.01923 -10.85965 10.41352 6.456998 4.455826 -19.95745 -3.361255 -93.65998 36.06485 21.98155 0 0 -23.20153 -7.588503 15.72023 24.69751
1.10316 99.0908 30.01977 -2.527119 4.295252 2.339762 8.233555 -33.64755 2.855933 -0 13.85655 -0 -7.60802 -0.7665912 -1.318533 -4.232883 15.8236 -15.12726 -0 21.65477 -0 -6.238907 -19.79871 11.10834 -0.8356408 0.1038386 2.663447 2.45251 7.321698 -8.173249 1.028868 22.17039 7.182237 3.937129 -23.67674 7.537063 5.316537 -16.4414 11.3136 88.70742 36.00928 -22.57573 -0 0 11.64185 -11.55513 10.92147 6.858144 4.375098 -20.0851 -3.282399 -93.08323 35.27293 21.58322 0 0 -23.17944 -7.027852 15.61637 24.30478
1.228537 99.2761 35.86572 -2.888464 3.299971 2.536844 8.742559 -29.86496 2.768975 -0 14.93544 -0 -8.418115 -1.194723 -1.35837 -3.708083 14.32586 -13.9814 -0 30.26738 -0 -7.792148 -15.69881 9.502147 -0.6948451 0.287035 2.870181 2.359935 7.449994 -8.087132 1.037409 22.12312 7.112251 3.898123 -23.58872 7.425519 5.216747 -16.41176 11.32923 88.58941 36.43242 -22.15071 -0 0 11.40335 -12.44036 11.51423 7.287915 4.368013 -20.2529 -3.126171 -92.63293 34.49107 21.35485 0 0 -23.1357 -6.272458 15.51956 23.76416
1.397379 99.95048 41.88287 -3.033927 2.031226 2.475869 8.900386 -25.06463 2.752287 -0 16.1181 -0 -9.070286 -2.666142 -1.526245 -3.263005 11.27696 -12.75644 -0 40.07515 -0 -8.710867 -11.31086 8.52034 -0.5802547 0.4167394 3.23504 2.148381 7.611422 -7.896431 1.054389 22.09673 7.084507 3.900139 -23.42621 7.351407 5.11134 -16.49106 11.31533 88.27186 36.9828 -21.45192 -0 0 11.35301 -13.53203 12.18922 7.760568 4.43468 -20.43971 -2.88761 -92.34047 33.72854 21.33186 0 0 -23.02472 -5.351378 15.42746 23.08926
1.601194 101.0332 47.86378 -2.811478 0.733175 2.170752 8.497717 -19.59201 2.631065 -0 16.50319 -0 -9.461939 -4.818757 -1.689987 -2.988232 6.664817 -11.48786 -0 49.55626 -0 -8.996394 -7.463757 8.219254 -0.5012292 0.4916232 3.744873 1.832645 7.798372 -7.603246 1.080162 22.08531 7.096459 3.937066 -23.19678 7.314354 5.008341 -16.68406 11.28314 87.7061 37.60142 -20.4403 -0 0 11.52741 -14.83552 12.93751 8.298229 4.563517 -20.613 -2.571682 -92.21476 32.97867 21.52486 0 0 -22.79683 -4.322036 15.33115 22.30977
1.81366 102.3233 53.65982 -2.16898 -0.4304173 1.726312 7.547983 -13.77201 2.325029 -0 15.6281 -0 -9.535846 -7.083058 -1.688848 -2.858143 0.8058869 -10.2237 -0 56.91106 -0 -8.754693 -4.799385 8.590029 -0.4633672 0.5174336 4.368083 1.441394 7.999436 -7.222212 1.113761 22.07908 7.140533 3.99659 -22.91519 7.309505 4.914234 -16.9841 11.2471 86.86718 38.20877 -19.10619 -0 0 11.9429 -16.34091 13.74269 8.923026 4.732765 -20.73581 -2.195272 -92.24191 32.22438 21.91892 0 0 -22.4121 -3.261686 15.21714 21.46898
2.011125 103.5568 59.20445 -1.217314 -1.400511 1.28012 6.313206 -7.932587 1.874254 -0 13.59768 -0 -9.292267 -8.948177 -1.434074 -2.709348 -5.724521 -8.95184 -0 60.5956 -0 -8.080873 -3.530064 9.578164 -0.4679592 0.504042 5.06304 1.008758 8.202622 -6.776007 1.153549 22.06833 7.206883 4.064035 -22.59867 7.330591 4.832934 -17.37618 11.22074 85.76549 38.72237 -17.47788 -0 0 12.59418 -18.01913 14.57941 9.646719 4.915475 -20.77517 -1.785136 -92.39377 31.45091 22.48159 0 0 -21.85111 -2.253191 15.07189 20.61806
2.195523 104.4793 64.50523 -0.2139946 -2.18115 0.9317398 5.183596 -2.415922 1.407465 -0 10.94095 -0 -8.78355 -10.22113 -0.9855455 -2.285931 -12.22362 -7.584113 -0 59.74872 -0 -7.062765 -3.415046 11.06435 -0.5129068 0.4623172 5.787898 0.5662469 8.397628 -6.289286 1.19774 22.04666 7.285886 4.126145 -22.26309 7.372009 4.765663 -17.84083 11.21363 84.4455 39.0739 -15.61672 -0 0 13.45804 -19.82386 15.41456 10.46569 5.085456 -20.70811 -1.371918 -92.6377 30.65452 23.17291 0 0 -21.11659 -1.368532 14.88536 19.80596
